<svg xmlns="http://www.w3.org/2000/svg" viewBox="0 0 480 480" width="48" height="48">
  <!-- CPU outer body -->
  <rect x="110" y="110" width="260" height="260" rx="20" fill="none" stroke="#D42A2A" stroke-width="28"/>
  <!-- CPU inner core -->
  <rect x="160" y="160" width="160" height="160" rx="10" fill="#D42A2A" opacity="0.2"/>
  <rect x="160" y="160" width="160" height="160" rx="10" fill="none" stroke="#D42A2A" stroke-width="18"/>
  <!-- Pins top -->
  <line x1="175" y1="110" x2="175" y2="50"  stroke="#D42A2A" stroke-width="22" stroke-linecap="round"/>
  <line x1="240" y1="110" x2="240" y2="50"  stroke="#D42A2A" stroke-width="22" stroke-linecap="round"/>
  <line x1="305" y1="110" x2="305" y2="50"  stroke="#D42A2A" stroke-width="22" stroke-linecap="round"/>
  <!-- Pins bottom -->
  <line x1="175" y1="370" x2="175" y2="430" stroke="#D42A2A" stroke-width="22" stroke-linecap="round"/>
  <line x1="240" y1="370" x2="240" y2="430" stroke="#D42A2A" stroke-width="22" stroke-linecap="round"/>
  <line x1="305" y1="370" x2="305" y2="430" stroke="#D42A2A" stroke-width="22" stroke-linecap="round"/>
  <!-- Pins left -->
  <line x1="110" y1="175" x2="50"  y2="175" stroke="#D42A2A" stroke-width="22" stroke-linecap="round"/>
  <line x1="110" y1="240" x2="50"  y2="240" stroke="#D42A2A" stroke-width="22" stroke-linecap="round"/>
  <line x1="110" y1="305" x2="50"  y2="305" stroke="#D42A2A" stroke-width="22" stroke-linecap="round"/>
  <!-- Pins right -->
  <line x1="370" y1="175" x2="430" y2="175" stroke="#D42A2A" stroke-width="22" stroke-linecap="round"/>
  <line x1="370" y1="240" x2="430" y2="240" stroke="#D42A2A" stroke-width="22" stroke-linecap="round"/>
  <line x1="370" y1="305" x2="430" y2="305" stroke="#D42A2A" stroke-width="22" stroke-linecap="round"/>
</svg>
